<svg width="200" height="200" viewBox="0 0 200 200" fill="none" xmlns="http://www.w3.org/2000/svg">
<circle cx="101" cy="98.5" r="70.5" stroke="black" stroke-width="2" stroke-linecap="round" stroke-dasharray="11 11"/>
<circle cx="154.687" cy="139.687" r="31.6866" fill="#FEDB9E" stroke="black" stroke-width="2"/>
<circle cx="154.766" cy="140" r="24" fill="white"/>
<path fill-rule="evenodd" clip-rule="evenodd" d="M154.685 165.112C168.725 165.112 180.108 153.729 180.108 139.689C180.108 125.648 168.725 114.266 154.685 114.266C140.644 114.266 129.262 125.648 129.262 139.689C129.262 153.729 140.644 165.112 154.685 165.112ZM136.005 128.409C136.005 132.672 137.694 135.993 141.046 138.169C142.389 139.04 143.972 139.71 145.776 140.196L141.744 149.512H146.025L154.524 129.872H150.243L146.982 137.409C145.249 136.983 143.819 136.392 142.68 135.652C140.262 134.083 139.005 131.758 139.005 128.409C139.005 125.597 140.005 122.874 141.934 120.672C145.578 118.225 149.964 116.797 154.683 116.797C167.327 116.797 177.577 127.047 177.577 139.691C177.577 144.706 175.964 149.345 173.229 153.116C173.328 152.422 173.378 151.715 173.378 150.997C173.378 146.735 171.689 143.413 168.336 141.238C166.992 140.365 165.407 139.694 163.601 139.208L167.641 129.872H163.36L159.64 138.469C158.1 138.29 156.448 138.203 154.691 138.203C154.407 138.203 154.128 138.201 153.852 138.196L152.57 141.158C153.259 141.188 153.966 141.203 154.691 141.203C156.014 141.203 157.246 141.255 158.391 141.357L154.862 149.512H159.142L162.395 141.995C164.131 142.422 165.562 143.014 166.703 143.754C169.121 145.323 170.378 147.648 170.378 150.997C170.378 153.772 169.404 156.459 167.526 158.646C163.863 161.132 159.443 162.584 154.683 162.584C142.039 162.584 131.789 152.334 131.789 139.691C131.789 134.659 133.412 130.007 136.163 126.229C136.058 126.943 136.005 127.67 136.005 128.409Z" fill="black"/>
<path d="M12 111V112H13H92H93V111V45V44H92H13H12V45V111Z" fill="white" stroke="black" stroke-width="2"/>
<circle cx="28.5738" cy="66.8003" r="5.67143" stroke="black" stroke-width="2"/>
<path d="M26.2383 65.6568L28.282 68.3558L37.1383 58.2344" stroke="black" stroke-width="2" stroke-linecap="round" stroke-linejoin="round"/>
<path d="M42.5898 64.9062H80.7398" stroke="black" stroke-width="2" stroke-linecap="round"/>
<path d="M42.5898 69.9062H64.7398" stroke="black" stroke-width="2" stroke-linecap="round"/>
<circle r="5.67143" transform="matrix(1 0 0 -1 28.5738 92.0864)" stroke="black" stroke-width="2"/>
<path d="M43 90H76" stroke="black" stroke-width="2" stroke-linecap="round"/>
<path d="M43 95H68" stroke="black" stroke-width="2" stroke-linecap="round"/>
</svg>
