<svg width="288" height="288" viewBox="0 0 288 288" fill="none" xmlns="http://www.w3.org/2000/svg">
<rect x="1" y="1" width="285.323" height="285.323" rx="5.32509" fill="#BAC4FA"/>
<rect x="1" y="1" width="285.323" height="285.323" rx="5.32509" fill="white"/>
<rect x="1" y="1" width="285.323" height="285.323" rx="5.32509" fill="url(#paint0_linear_318_17836)"/>
<rect x="1" y="1" width="285.323" height="285.323" rx="5.32509" stroke="black" stroke-width="2"/>
<path d="M230.143 77.2155C240.362 87.4345 241.533 105.144 234.661 125.871C227.81 146.536 213.047 169.884 191.96 190.971C170.872 212.058 147.524 226.822 126.859 233.673C106.132 240.545 88.4229 239.373 78.2039 229.154L67.8152 218.766C79.5099 224.416 94.878 224.397 111.46 219.591C133.167 213.3 157.203 198.754 178.473 177.485C199.743 156.215 214.288 132.179 220.579 110.472C225.385 93.8896 225.404 78.5215 219.754 66.8268L230.143 77.2155ZM211.517 58.5896C222.798 69.8713 224.85 88.5511 218.658 109.915C212.478 131.24 198.136 154.993 177.059 176.071C155.981 197.148 132.229 211.49 110.904 217.67C89.5395 223.862 70.8597 221.81 59.578 210.528C48.2963 199.247 46.2446 180.567 52.4363 159.203C58.6166 137.878 72.9582 114.125 94.0358 93.0475C115.113 71.9699 138.866 57.6283 160.191 51.4479C181.555 45.2562 200.235 47.3079 211.517 58.5896Z" fill="#5F75EE" stroke="black" stroke-width="2"/>
<path d="M94.0358 93.0466C115.113 71.969 138.866 57.6274 160.191 51.447C181.555 45.2553 200.235 47.307 211.517 58.5887C222.798 69.8704 224.85 88.5502 218.658 109.914C212.478 131.239 198.136 154.992 177.059 176.07C155.981 197.147 132.229 211.489 110.904 217.669C89.5395 223.861 70.8597 221.809 59.578 210.527C48.2963 199.246 46.2446 180.566 52.4363 159.202C58.6166 137.877 72.9582 114.124 94.0358 93.0466Z" fill="white" stroke="black" stroke-width="2"/>
<path d="M100.865 101.116C118.866 83.1153 138.795 70.5203 156.427 64.6803C174.12 58.8197 189.181 59.8449 197.858 68.5211C206.534 77.1974 207.559 92.2589 201.699 109.952C195.859 127.583 183.264 147.512 165.262 165.514C147.261 183.515 127.332 196.11 109.701 201.95C92.0078 207.81 76.9463 206.785 68.27 198.109C59.5937 189.433 58.5686 174.371 64.4292 156.678C70.2691 139.047 82.8641 119.118 100.865 101.116Z" fill="black" stroke="black" stroke-width="2"/>
<path d="M151.121 157.377C149.457 167.608 142.498 178.868 130.956 190.41C128.46 192.906 125.908 195.248 123.323 197.424C137.218 190.718 152.126 180.066 165.97 166.223C200.088 132.105 214.82 91.5213 198.875 75.5768C198.145 74.8465 197.363 74.1805 196.533 73.5779C184.007 64.5401 163.579 73.583 148.055 89.1064C139.649 97.5128 135.416 104.662 134.334 111.311C133.807 114.552 134.011 117.795 135.034 121.006L157.395 106.168L162.638 111.411L138.318 127.549C139.407 129.116 140.713 130.67 142.248 132.205C143.213 133.17 144.109 134.157 144.934 135.166L132.708 143.278C132.463 143.018 132.21 142.759 131.952 142.501C129.722 140.27 127.86 137.926 126.404 135.455L100.747 152.48L95.5043 147.237L123.534 128.638C122.604 125.11 122.424 121.349 123.078 117.328C124.743 107.097 131.702 95.8367 143.244 84.2947C145.739 81.7991 148.291 79.4567 150.876 77.2808C136.981 83.9868 122.073 94.6388 108.23 108.482C74.1118 142.6 59.3794 183.184 75.3239 199.128C76.0543 199.859 76.8364 200.525 77.6672 201.127C90.1927 210.165 110.621 201.122 126.144 185.599C134.55 177.192 138.783 170.043 139.865 163.394C140.392 160.157 140.189 156.918 139.169 153.71L116.813 168.545L111.57 163.303L173.461 122.234L178.704 127.477L150.669 146.079C151.596 149.604 151.774 153.361 151.121 157.377Z" fill="white"/>
<path d="M151.121 157.377C149.457 167.608 142.498 178.868 130.956 190.41C128.46 192.906 125.908 195.248 123.323 197.424C137.218 190.718 152.126 180.066 165.97 166.223C200.088 132.105 214.82 91.5213 198.875 75.5768C198.145 74.8465 197.363 74.1805 196.533 73.5779C184.007 64.5401 163.579 73.583 148.055 89.1064C139.649 97.5128 135.416 104.662 134.334 111.311C133.807 114.552 134.011 117.795 135.034 121.006L157.395 106.168L162.638 111.411L138.318 127.549C139.407 129.116 140.713 130.67 142.248 132.205C143.213 133.17 144.109 134.157 144.934 135.166L132.708 143.278C132.463 143.018 132.21 142.759 131.952 142.501C129.722 140.27 127.86 137.926 126.404 135.455L100.747 152.48L95.5043 147.237L123.534 128.638C122.604 125.11 122.424 121.349 123.078 117.328C124.743 107.097 131.702 95.8367 143.244 84.2947C145.739 81.7991 148.291 79.4567 150.876 77.2808C136.981 83.9868 122.073 94.6388 108.23 108.482C74.1118 142.6 59.3794 183.184 75.3239 199.128C76.0543 199.859 76.8364 200.525 77.6672 201.127C90.1927 210.165 110.621 201.122 126.144 185.599C134.55 177.192 138.783 170.043 139.865 163.394C140.392 160.157 140.189 156.918 139.169 153.71L116.813 168.545L111.57 163.303L173.461 122.234L178.704 127.477L150.669 146.079C151.596 149.604 151.774 153.361 151.121 157.377Z" fill="url(#paint1_linear_318_17836)" fill-opacity="0.7"/>
<path d="M108.937 109.19C125.916 92.2111 144.471 80.0916 160.709 74.1971C177.03 68.2722 190.634 68.7499 198.168 76.2847C205.703 83.8196 206.181 97.4229 200.256 113.744C194.362 129.982 182.242 148.537 165.263 165.516C148.283 182.496 129.728 194.615 113.491 200.51C97.1692 206.435 83.5659 205.957 76.031 198.422C68.4961 190.887 68.0185 177.284 73.9434 160.962C79.8378 144.725 91.9574 126.17 108.937 109.19Z" stroke="black" stroke-width="2"/>
<defs>
<linearGradient id="paint0_linear_318_17836" x1="8.97888" y1="481.054" x2="468.084" y2="257.476" gradientUnits="userSpaceOnUse">
<stop stop-color="#98A8FF"/>
<stop offset="0.453125" stop-color="#AFA8D7"/>
<stop offset="1" stop-color="#FEDB9E"/>
</linearGradient>
<linearGradient id="paint1_linear_318_17836" x1="297.282" y1="200.512" x2="193.233" y2="-15.7951" gradientUnits="userSpaceOnUse">
<stop stop-color="#98A8FF"/>
<stop offset="0.453125" stop-color="#AFA8D7"/>
<stop offset="1" stop-color="#FEDB9E"/>
</linearGradient>
</defs>
</svg>
