<svg width="187" height="187" viewBox="0 0 187 187" fill="none" xmlns="http://www.w3.org/2000/svg">
<rect x="1" y="1" width="185" height="185" rx="5.32509" fill="#FEDB9E" stroke="black" stroke-width="2"/>
<rect width="45.6024" height="45.6024" transform="matrix(0.86601 0.500028 3.18351e-05 1 93.4961 48)" fill="#6E6E6E"/>
<rect width="45.6024" height="45.6024" transform="matrix(0.86601 -0.500028 -3.18351e-05 1 54 70.8047)" fill="#5A5A5A"/>
<rect width="45.6024" height="45.6024" transform="matrix(0.866041 0.499972 -0.866041 0.499972 93.4961 93.6016)" fill="#AAAAAA"/>
<mask id="path-5-outside-1_318_17827" maskUnits="userSpaceOnUse" x="52.2679" y="67.7968" width="43.3021" height="75.0014" fill="black">
<rect fill="white" x="52.2679" y="67.7968" width="43.3021" height="75.0014"/>
<path d="M54 70.7969L93.4921 93.5993L93.4936 139.202L54.0015 116.399L54 70.7969Z"/>
</mask>
<path d="M54 70.7969L93.4921 93.5993L93.4936 139.202L54.0015 116.399L54 70.7969Z" fill="#FEDB9E"/>
<path d="M54 70.7969L53.9999 68.7969L52.268 69.7968L54 70.7969ZM93.4921 93.5993L95.2241 94.5994L93.492 91.5993L93.4921 93.5993ZM93.4936 139.202L93.4936 141.202L95.2256 140.202L93.4936 139.202ZM54.0015 116.399L52.2694 115.399C52.2695 116.504 53.0449 117.847 54.0015 118.399L54.0015 116.399ZM54.0001 72.7969L93.4922 95.5993L93.492 91.5993L53.9999 68.7969L54.0001 72.7969ZM91.7601 92.5993L91.7615 138.202L95.2256 140.202L95.2241 94.5994L91.7601 92.5993ZM93.4935 137.202L54.0014 114.399L54.0015 118.399L93.4936 141.202L93.4935 137.202ZM55.7335 117.399L55.732 71.7969L52.268 69.7968L52.2694 115.399L55.7335 117.399Z" fill="black" mask="url(#path-5-outside-1_318_17827)"/>
<mask id="path-7-outside-2_318_17827" maskUnits="userSpaceOnUse" x="91.7586" y="67.5963" width="43.3021" height="75.0014" fill="black">
<rect fill="white" x="91.7586" y="67.5963" width="43.3021" height="75.0014"/>
<path d="M93.4922 93.5977L132.984 70.7952L132.983 116.398L93.4907 139.2L93.4922 93.5977Z"/>
</mask>
<path d="M93.4922 93.5977L132.984 70.7952L132.983 116.398L93.4907 139.2L93.4922 93.5977Z" fill="#BAC4FA"/>
<path d="M93.4922 93.5977L93.4923 91.5977L91.7602 94.5977L93.4922 93.5977ZM132.984 70.7952L134.716 69.7951L132.984 68.7952L132.984 70.7952ZM132.983 116.398L132.983 118.398C133.939 117.845 134.715 116.502 134.715 115.398L132.983 116.398ZM93.4907 139.2L91.7587 140.2L93.4907 141.2L93.4907 139.2ZM93.4921 95.5977L132.984 72.7952L132.984 68.7952L93.4923 91.5977L93.4921 95.5977ZM131.252 71.7953L131.251 117.398L134.715 115.398L134.716 69.7951L131.252 71.7953ZM132.983 114.398L93.4908 137.2L93.4907 141.2L132.983 118.398L132.983 114.398ZM95.2228 138.2L95.2242 92.5976L91.7602 94.5977L91.7587 140.2L95.2228 138.2Z" fill="black" mask="url(#path-7-outside-2_318_17827)"/>
<mask id="path-9-outside-3_318_17827" maskUnits="userSpaceOnUse" x="50.5358" y="45.8022" width="86.6041" height="49.9972" fill="black">
<rect fill="white" x="50.5358" y="45.8022" width="86.6041" height="49.9972"/>
<path d="M54 70.8008L93.4936 48.0008L132.987 70.8008L93.4936 93.6007L54 70.8008Z"/>
</mask>
<path d="M54 70.8008L93.4936 48.0008L132.987 70.8008L93.4936 93.6007L54 70.8008Z" fill="white"/>
<path d="M54 70.8008L52.2679 69.8008V71.8007L54 70.8008ZM93.4936 48.0008L95.2256 47.0009C94.269 46.4486 92.7181 46.4486 91.7615 47.0009L93.4936 48.0008ZM132.987 70.8008L134.719 71.8007V69.8008L132.987 70.8008ZM93.4936 93.6007L91.7615 94.6007H95.2256L93.4936 93.6007ZM55.7321 71.8007L95.2256 49.0008L91.7615 47.0009L52.2679 69.8008L55.7321 71.8007ZM91.7615 49.0008L131.255 71.8007L134.719 69.8008L95.2256 47.0009L91.7615 49.0008ZM131.255 69.8008L91.7615 92.6008L95.2256 94.6007L134.719 71.8007L131.255 69.8008ZM95.2256 92.6008L55.7321 69.8008L52.2679 71.8007L91.7615 94.6007L95.2256 92.6008Z" fill="black" mask="url(#path-9-outside-3_318_17827)"/>
</svg>
