<svg width="183" height="200" viewBox="0 0 183 200" fill="none" xmlns="http://www.w3.org/2000/svg">
<path d="M90.9387 33.4766L151.327 68.2653M90.9387 33.4766L30.5508 68.2653M90.9387 33.4766V103.054M151.327 68.2653V137.843M151.327 68.2653L30.5508 137.843M151.327 137.843L90.9387 172.631M151.327 137.843L90.9387 103.054M90.9387 172.631L30.5508 137.843M90.9387 172.631V103.054M30.5508 137.843V68.2653M30.5508 68.2653L90.9387 103.054" stroke="black" stroke-width="2" stroke-linecap="round" stroke-dasharray="0.25 5"/>
<mask id="path-2-outside-1_318_17675" maskUnits="userSpaceOnUse" x="60.633" y="34.157" width="32.009" height="29.5592" fill="black">
<rect fill="white" x="60.633" y="34.157" width="32.009" height="29.5592"/>
<path d="M62.3633 37.1602L90.4699 53.4569L90.471 59.9728L62.3643 43.676L62.3633 37.1602Z"/>
</mask>
<path d="M62.3633 37.1602L90.4699 53.4569L90.471 59.9728L62.3643 43.676L62.3633 37.1602Z" fill="#5F75EE"/>
<path d="M62.3633 37.1602L62.3632 35.1602L60.6331 36.1572L62.3633 37.1602ZM90.4699 53.4569L92.2001 54.4598L90.4699 51.4569L90.4699 53.4569ZM90.471 59.9728L90.471 61.9728L92.2011 60.9757L90.471 59.9728ZM62.3643 43.676L60.6341 42.6731C60.6343 43.7776 61.4089 45.122 62.3644 45.676L62.3643 43.676ZM62.3633 39.1602L90.47 55.4569L90.4699 51.4569L62.3632 35.1602L62.3633 39.1602ZM88.7397 52.454L88.7408 58.9699L92.2011 60.9757L92.2001 54.4598L88.7397 52.454ZM90.4709 57.9728L62.3643 41.676L62.3644 45.676L90.471 61.9728L90.4709 57.9728ZM64.0945 44.6789L64.0935 38.1631L60.6331 36.1572L60.6341 42.6731L64.0945 44.6789Z" fill="black" mask="url(#path-2-outside-1_318_17675)"/>
<mask id="path-4-outside-2_318_17675" maskUnits="userSpaceOnUse" x="88.7383" y="33.901" width="32.009" height="29.5592" fill="black">
<rect fill="white" x="88.7383" y="33.901" width="32.009" height="29.5592"/>
<path d="M90.4696 53.4566L118.576 37.1598L118.575 43.6756L90.4685 59.9724L90.4696 53.4566Z"/>
</mask>
<path d="M90.4696 53.4566L118.576 37.1598L118.575 43.6756L90.4685 59.9724L90.4696 53.4566Z" fill="black"/>
<path d="M90.4696 53.4566L90.4696 51.4566L88.7394 54.4595L90.4696 53.4566ZM118.576 37.1598L120.306 36.1569L118.576 35.1598L118.576 37.1598ZM118.575 43.6756L118.575 45.6756C119.531 45.1216 120.305 43.7773 120.305 42.6727L118.575 43.6756ZM90.4685 59.9724L88.7383 60.9753L90.4685 61.9724L90.4685 59.9724ZM90.4695 55.4566L118.576 39.1598L118.576 35.1598L90.4696 51.4566L90.4695 55.4566ZM116.846 38.1627L116.845 44.6785L120.305 42.6727L120.306 36.1569L116.846 38.1627ZM118.575 41.6756L90.4686 57.9724L90.4685 61.9724L118.575 45.6756L118.575 41.6756ZM92.1987 58.9695L92.1998 52.4536L88.7394 54.4595L88.7383 60.9753L92.1987 58.9695Z" fill="black" mask="url(#path-4-outside-2_318_17675)"/>
<mask id="path-6-outside-3_318_17675" maskUnits="userSpaceOnUse" x="58.9028" y="18.6069" width="64.0197" height="37.1144" fill="black">
<rect fill="white" x="58.9028" y="18.6069" width="64.0197" height="37.1144"/>
<path d="M62.3633 37.1641L90.471 20.8691L118.579 37.1641L90.471 53.459L62.3633 37.1641Z"/>
</mask>
<path d="M62.3633 37.1641L90.471 20.8691L118.579 37.1641L90.471 53.459L62.3633 37.1641Z" fill="white"/>
<path d="M62.3633 37.1641L60.633 36.161V38.1672L62.3633 37.1641ZM90.471 20.8691L92.2012 19.866C91.2456 19.312 89.6963 19.312 88.7407 19.866L90.471 20.8691ZM118.579 37.1641L120.309 38.1672V36.161L118.579 37.1641ZM90.471 53.459L88.7407 54.4621H92.2012L90.471 53.459ZM64.0935 38.1672L92.2012 21.8722L88.7407 19.866L60.633 36.161L64.0935 38.1672ZM88.7407 21.8722L116.848 38.1672L120.309 36.161L92.2012 19.866L88.7407 21.8722ZM116.848 36.161L88.7407 52.456L92.2012 54.4621L120.309 38.1672L116.848 36.161ZM92.2012 52.456L64.0935 36.161L60.633 38.1672L88.7407 54.4621L92.2012 52.456Z" fill="black" mask="url(#path-6-outside-3_318_17675)"/>
<circle r="16.08" transform="matrix(0.866009 0.500028 3.1868e-05 1 88.0705 24.1205)" fill="white" stroke="black" stroke-width="2" stroke-linecap="round" stroke-linejoin="round"/>
<path d="M77.9478 13.9639C78.336 16.0443 79.261 18.119 80.7285 20.066C81.2377 20.7416 81.7964 21.3806 82.3971 21.9861L80.873 25.1732C80.7572 25.4154 80.7839 25.7864 80.944 26.1603C81.1042 26.5342 81.3762 26.8608 81.6679 27.0292L83.7839 28.251C84.1292 28.4504 84.4415 28.3938 84.5786 28.107L86.2109 24.6936C86.3633 25.0446 86.6151 25.3548 86.89 25.5285C87.2745 25.7715 87.6682 26.0089 88.0704 26.2412C88.2205 26.3279 88.3678 26.4146 88.5123 26.5012L87.3571 28.917C87.2412 29.1592 87.2679 29.5302 87.4281 29.9042C87.5882 30.2781 87.8602 30.6047 88.1519 30.7731L90.2679 31.9948C90.6132 32.1942 90.9255 32.1377 91.0627 31.8509L92.2785 29.3083C92.7338 29.75 93.1084 30.1748 93.4122 30.5779C94.2664 31.7112 94.7296 32.8865 94.7297 34.412C94.7298 37.1899 92.8539 38.9551 88.8816 37.0082C88.6141 36.8767 88.3436 36.7322 88.0707 36.5747C82.1138 33.1352 77.2846 24.7708 77.2844 17.8922C77.2844 16.376 77.5186 15.0592 77.9478 13.9639ZM98.1929 34.276C97.8046 32.1956 96.8796 30.1209 95.4121 28.1739C94.902 27.4972 94.3423 26.8572 93.7406 26.2508L95.2642 23.0647C95.38 22.8225 95.3533 22.4515 95.1932 22.0776C95.033 21.7037 94.761 21.3771 94.4693 21.2087L92.3533 19.9869C92.008 19.7875 91.6957 19.8441 91.5586 20.1309L90.0688 23.2462C89.4293 22.8135 88.7622 22.3982 88.0702 21.9987C87.9695 21.9405 87.87 21.8824 87.7718 21.8242C87.72 21.7935 87.6689 21.7686 87.6189 21.7493L88.7801 19.3209C88.896 19.0787 88.8693 18.7077 88.7091 18.3338C88.549 17.9598 88.277 17.6333 87.9853 17.4649L85.8693 16.2431C85.524 16.0437 85.2117 16.1003 85.0745 16.387L83.8591 18.9287C83.4052 18.488 83.0316 18.0642 82.7284 17.662C81.8742 16.5287 81.411 15.3534 81.4109 13.8279C81.4108 11.0501 83.2866 9.28497 87.2584 11.2313C87.5261 11.363 87.7968 11.5075 88.0699 11.6652C94.0268 15.1047 98.856 23.4691 98.8562 30.3476C98.8563 31.8639 98.622 33.1807 98.1929 34.276Z" stroke="black" stroke-width="2" stroke-linecap="round" stroke-linejoin="round"/>
<mask id="path-10-outside-4_318_17675" maskUnits="userSpaceOnUse" x="121.975" y="69.8554" width="32.0427" height="29.501" fill="black">
<rect fill="white" x="121.975" y="69.8554" width="32.0427" height="29.501"/>
<path d="M123.707 72.8555L152.126 89.2646L152.127 95.8253L123.708 79.4162L123.707 72.8555Z"/>
</mask>
<path d="M123.707 72.8555L152.126 89.2646L152.127 95.8253L123.708 79.4162L123.707 72.8555Z" fill="#5F75EE"/>
<path d="M123.707 72.8555L123.707 70.8555L121.975 71.8557L123.707 72.8555ZM152.126 89.2646L153.858 90.2643L152.126 87.2646L152.126 89.2646ZM152.127 95.8253L152.127 97.8253L153.859 96.8251L152.127 95.8253ZM123.708 79.4162L121.976 78.4165C121.976 79.521 122.752 80.864 123.708 81.4162L123.708 79.4162ZM123.707 74.8555L152.126 91.2646L152.126 87.2646L123.707 70.8555L123.707 74.8555ZM150.394 88.2648L150.395 94.8256L153.859 96.8251L153.858 90.2643L150.394 88.2648ZM152.127 93.8253L123.708 77.4162L123.708 81.4162L152.127 97.8253L152.127 93.8253ZM125.44 80.416L125.439 73.8552L121.975 71.8557L121.976 78.4165L125.44 80.416Z" fill="black" mask="url(#path-10-outside-4_318_17675)"/>
<mask id="path-12-outside-5_318_17675" maskUnits="userSpaceOnUse" x="150.393" y="69.7608" width="32.0427" height="29.501" fill="black">
<rect fill="white" x="150.393" y="69.7608" width="32.0427" height="29.501"/>
<path d="M152.126 89.2612L180.545 72.8521L180.544 79.4129L152.125 95.822L152.126 89.2612Z"/>
</mask>
<path d="M152.126 89.2612L180.545 72.8521L180.544 79.4129L152.125 95.822L152.126 89.2612Z" fill="black"/>
<path d="M152.126 89.2612L152.126 87.2612L150.394 90.261L152.126 89.2612ZM180.545 72.8521L182.277 71.8524L180.545 70.8521L180.545 72.8521ZM180.544 79.4129L180.544 81.4129C181.5 80.8606 182.276 79.5177 182.276 78.4131L180.544 79.4129ZM152.125 95.822L150.393 96.8218L152.125 97.822L152.125 95.822ZM152.126 91.2612L180.545 74.8521L180.545 70.8521L152.126 87.2612L152.126 91.2612ZM178.813 73.8519L178.812 80.4127L182.276 78.4131L182.277 71.8524L178.813 73.8519ZM180.544 77.4129L152.125 93.822L152.125 97.822L180.544 81.4129L180.544 77.4129ZM153.857 94.8222L153.858 88.2615L150.394 90.261L150.393 96.8218L153.857 94.8222Z" fill="black" mask="url(#path-12-outside-5_318_17675)"/>
<mask id="path-14-outside-6_318_17675" maskUnits="userSpaceOnUse" x="120.243" y="54.3565" width="64.0871" height="36.998" fill="black">
<rect fill="white" x="120.243" y="54.3565" width="64.0871" height="36.998"/>
<path d="M123.707 72.8555L152.127 56.4482L180.548 72.8555L152.127 89.2628L123.707 72.8555Z"/>
</mask>
<path d="M123.707 72.8555L152.127 56.4482L180.548 72.8555L152.127 89.2628L123.707 72.8555Z" fill="white"/>
<path d="M123.707 72.8555L121.975 71.8555V73.8554L123.707 72.8555ZM152.127 56.4482L153.859 55.4482C152.903 54.896 151.352 54.896 150.395 55.4482L152.127 56.4482ZM180.548 72.8555L182.28 73.8554V71.8555L180.548 72.8555ZM152.127 89.2628L150.395 90.2627H153.859L152.127 89.2628ZM125.439 73.8554L153.859 57.4481L150.395 55.4482L121.975 71.8555L125.439 73.8554ZM150.395 57.4481L178.816 73.8554L182.28 71.8555L153.859 55.4482L150.395 57.4481ZM178.816 71.8555L150.395 88.2628L153.859 90.2627L182.28 73.8554L178.816 71.8555ZM153.859 88.2628L125.439 71.8555L121.975 73.8554L150.395 90.2627L153.859 88.2628Z" fill="black" mask="url(#path-14-outside-6_318_17675)"/>
<path d="M152.178 45.1221L143.317 40.0057C142.729 39.6664 142.166 39.6065 141.75 39.8389C141.335 40.0714 141.102 40.5773 141.102 41.2453L141.102 61.3951C141.102 62.0631 141.336 62.8386 141.751 63.5508C142.167 64.263 142.73 64.8537 143.318 65.193L156.61 72.8677C157.197 73.2069 157.761 73.2669 158.176 73.0344C158.592 72.8019 158.825 72.2961 158.825 71.628L158.824 56.5157L152.178 45.1221Z" fill="white"/>
<path d="M152.178 45.1221L152.178 52.6783L158.824 56.5157" fill="white"/>
<path d="M147.748 51.3795L145.532 50.1003Z" fill="white"/>
<path d="M152.178 45.1221L143.317 40.0057C142.729 39.6664 142.166 39.6065 141.75 39.8389C141.335 40.0714 141.102 40.5773 141.102 41.2453L141.102 61.3951C141.102 62.0631 141.336 62.8386 141.751 63.5508C142.167 64.263 142.73 64.8537 143.318 65.193L156.61 72.8677C157.197 73.2069 157.761 73.2669 158.176 73.0344C158.592 72.8019 158.825 72.2961 158.825 71.628L158.824 56.5157M152.178 45.1221L158.824 56.5157M152.178 45.1221L152.178 52.6783L158.824 56.5157M154.394 60.2543L145.533 55.1378M154.394 65.2917L145.533 60.1753M147.748 51.3795L145.532 50.1003" stroke="black" stroke-width="2" stroke-linecap="round" stroke-linejoin="round"/>
<path d="M155.635 74.4976C157.833 75.7663 159.614 74.7379 159.614 72.2006C159.614 69.6632 157.832 66.5777 155.635 65.309C153.438 64.0402 151.656 65.0687 151.656 67.606C151.656 70.1434 153.438 73.2288 155.635 74.4976Z" fill="white"/>
<path d="M153.481 72.5252L152.793 78.1073L155.635 77.7792L158.477 81.3891L157.789 75.0063" fill="white"/>
<path d="M153.481 72.5252L152.793 78.1073L155.635 77.7792L158.477 81.3891L157.789 75.0063M159.614 72.2006C159.614 74.7379 157.833 75.7663 155.635 74.4976C153.438 73.2288 151.656 70.1434 151.656 67.606C151.656 65.0687 153.438 64.0402 155.635 65.309C157.832 66.5777 159.614 69.6632 159.614 72.2006Z" stroke="black" stroke-width="2" stroke-linecap="round" stroke-linejoin="round"/>
<mask id="path-20-outside-7_318_17675" maskUnits="userSpaceOnUse" x="0.269739" y="70.0905" width="32.009" height="29.5592" fill="black">
<rect fill="white" x="0.269739" y="70.0905" width="32.009" height="29.5592"/>
<path d="M2 73.0938L30.1066 89.3905L30.1077 95.9064L2.00103 79.6096L2 73.0938Z"/>
</mask>
<path d="M2 73.0938L30.1066 89.3905L30.1077 95.9064L2.00103 79.6096L2 73.0938Z" fill="#5F75EE"/>
<path d="M2 73.0938L1.99994 71.0938L0.269802 72.0908L2 73.0938ZM30.1066 89.3905L31.8368 90.3934L30.1066 87.3905L30.1066 89.3905ZM30.1077 95.9064L30.1077 97.9064L31.8379 96.9093L30.1077 95.9064ZM2.00103 79.6096L0.270835 78.6067C0.271011 79.7112 1.04563 81.0556 2.0011 81.6096L2.00103 79.6096ZM2.00006 75.0938L30.1067 91.3905L30.1066 87.3905L1.99994 71.0938L2.00006 75.0938ZM28.3764 88.3876L28.3775 94.9035L31.8379 96.9093L31.8368 90.3934L28.3764 88.3876ZM30.1076 93.9064L2.00097 77.6096L2.0011 81.6096L30.1077 97.9064L30.1076 93.9064ZM3.73123 80.6125L3.7302 74.0967L0.269802 72.0908L0.270835 78.6067L3.73123 80.6125Z" fill="black" mask="url(#path-20-outside-7_318_17675)"/>
<mask id="path-22-outside-8_318_17675" maskUnits="userSpaceOnUse" x="28.375" y="69.8346" width="32.009" height="29.5592" fill="black">
<rect fill="white" x="28.375" y="69.8346" width="32.009" height="29.5592"/>
<path d="M30.1063 89.3901L58.2129 73.0934L58.2119 79.6092L30.1053 95.906L30.1063 89.3901Z"/>
</mask>
<path d="M30.1063 89.3901L58.2129 73.0934L58.2119 79.6092L30.1053 95.906L30.1063 89.3901Z" fill="black"/>
<path d="M30.1063 89.3901L30.1064 87.3901L28.3761 90.3931L30.1063 89.3901ZM58.2129 73.0934L59.9431 72.0905L58.213 71.0934L58.2129 73.0934ZM58.2119 79.6092L58.2118 81.6092C59.1673 81.0552 59.9419 79.7108 59.9421 78.6063L58.2119 79.6092ZM30.1053 95.906L28.3751 96.9089L30.1052 97.906L30.1053 95.906ZM30.1062 91.3901L58.2129 75.0934L58.213 71.0934L30.1064 87.3901L30.1062 91.3901ZM56.4827 74.0963L56.4817 80.6121L59.9421 78.6063L59.9431 72.0905L56.4827 74.0963ZM58.212 77.6092L30.1053 93.906L30.1052 97.906L58.2118 81.6092L58.212 77.6092ZM31.8355 94.9031L31.8365 88.3872L28.3761 90.3931L28.3751 96.9089L31.8355 94.9031Z" fill="black" mask="url(#path-22-outside-8_318_17675)"/>
<mask id="path-24-outside-9_318_17675" maskUnits="userSpaceOnUse" x="-1.46052" y="54.5404" width="64.0197" height="37.1144" fill="black">
<rect fill="white" x="-1.46052" y="54.5404" width="64.0197" height="37.1144"/>
<path d="M2 73.0977L30.1077 56.8027L58.2154 73.0977L30.1077 89.3926L2 73.0977Z"/>
</mask>
<path d="M2 73.0977L30.1077 56.8027L58.2154 73.0977L30.1077 89.3926L2 73.0977Z" fill="white"/>
<path d="M2 73.0977L0.269738 72.0946V74.1007L2 73.0977ZM30.1077 56.8027L31.8379 55.7996C30.8823 55.2456 29.333 55.2456 28.3774 55.7996L30.1077 56.8027ZM58.2154 73.0977L59.9456 74.1007V72.0946L58.2154 73.0977ZM30.1077 89.3926L28.3774 90.3957H31.8379L30.1077 89.3926ZM3.73026 74.1007L31.8379 57.8058L28.3774 55.7996L0.269738 72.0946L3.73026 74.1007ZM28.3774 57.8058L56.4851 74.1007L59.9456 72.0946L31.8379 55.7996L28.3774 57.8058ZM56.4851 72.0946L28.3774 88.3896L31.8379 90.3957L59.9456 74.1007L56.4851 72.0946ZM31.8379 88.3896L3.73026 72.0946L0.269738 74.1007L28.3774 90.3957L31.8379 88.3896Z" fill="black" mask="url(#path-24-outside-9_318_17675)"/>
<path d="M38.3444 52.6678C38.3445 54.4929 37.9862 56.0117 37.3472 57.1829C36.9766 57.8622 36.5686 58.5179 36.1495 59.1914C36.1038 59.2649 36.0579 59.3387 36.0119 59.4128C35.5484 60.1587 35.077 60.9286 34.6574 61.7483C33.819 63.3859 33.1569 65.2764 33.157 67.7294L33.157 69.3675L23.098 63.5595L23.098 61.9214C23.0979 59.4684 22.4357 56.8133 21.5971 54.2074C21.1774 52.9031 20.706 51.5888 20.2424 50.3076C20.1964 50.1804 20.1505 50.0536 20.1047 49.9272C19.6857 48.7699 19.2776 47.6429 18.9069 46.5356C18.2678 44.6265 17.9094 42.6939 17.9094 40.8687C17.9092 34.3528 22.4836 31.7117 28.1265 34.9699C33.7694 38.228 38.3442 46.1518 38.3444 52.6678Z" fill="white" stroke="black" stroke-width="2"/>
<path d="M28.3791 42.6683L28.3795 57.1075M31.2211 46.9345L26.9582 44.4732C26.4306 44.1685 25.9246 44.1184 25.5515 44.3338C25.1785 44.5492 24.9689 45.0124 24.9689 45.6217C24.9689 46.2309 25.1785 46.9362 25.5516 47.5824C25.9247 48.2286 26.4307 48.7628 26.9583 49.0675L29.8003 50.7084C30.3279 51.013 30.8339 51.5472 31.207 52.1934C31.5801 52.8396 31.7897 53.5449 31.7897 54.1542C31.7897 54.7634 31.5801 55.2267 31.2071 55.4421C30.834 55.6574 30.328 55.6073 29.8004 55.3027L24.9691 52.5131" stroke="black" stroke-width="2" stroke-linecap="round" stroke-linejoin="round"/>
<path d="M23.0966 68.2609L23.0966 67.762L33.1555 72.1762L33.1555 72.617L23.0966 68.2609ZM26.2363 71.6361L32.8489 74.4997C32.5183 74.8841 31.9524 74.9365 31.3097 74.5655L26.2363 71.6361ZM28.3795 68.066L23.0965 65.7477L23.0965 65.0157L28.3795 68.066Z" fill="white" stroke="black" stroke-width="2"/>
<path d="M25.802 72.8405L30.4523 75.5255C30.2234 75.6711 29.9003 75.6576 29.5421 75.4508L26.7123 73.8168C26.3541 73.61 26.0309 73.2503 25.802 72.8405Z" fill="white" stroke="black" stroke-width="2"/>
<mask id="path-30-outside-10_318_17675" maskUnits="userSpaceOnUse" x="122.428" y="137.465" width="32.0427" height="29.501" fill="black">
<rect fill="white" x="122.428" y="137.465" width="32.0427" height="29.501"/>
<path d="M124.16 140.465L152.579 156.874L152.58 163.435L124.161 147.026L124.16 140.465Z"/>
</mask>
<path d="M124.16 140.465L152.579 156.874L152.58 163.435L124.161 147.026L124.16 140.465Z" fill="#5F75EE"/>
<path d="M124.16 140.465L124.16 138.465L122.428 139.465L124.16 140.465ZM152.579 156.874L154.311 157.874L152.579 154.874L152.579 156.874ZM152.58 163.435L152.581 165.435L154.313 164.434L152.58 163.435ZM124.161 147.026L122.429 146.026C122.429 147.13 123.205 148.473 124.161 149.026L124.161 147.026ZM124.16 142.465L152.58 158.874L152.579 154.874L124.16 138.465L124.16 142.465ZM150.847 155.874L150.848 162.435L154.313 164.434L154.311 157.874L150.847 155.874ZM152.58 161.435L124.161 145.026L124.161 149.026L152.581 165.435L152.58 161.435ZM125.893 148.025L125.892 141.465L122.428 139.465L122.429 146.026L125.893 148.025Z" fill="black" mask="url(#path-30-outside-10_318_17675)"/>
<mask id="path-32-outside-11_318_17675" maskUnits="userSpaceOnUse" x="150.846" y="137.37" width="32.0427" height="29.501" fill="black">
<rect fill="white" x="150.846" y="137.37" width="32.0427" height="29.501"/>
<path d="M152.579 156.871L180.998 140.462L180.997 147.022L152.578 163.431L152.579 156.871Z"/>
</mask>
<path d="M152.579 156.871L180.998 140.462L180.997 147.022L152.578 163.431L152.579 156.871Z" fill="black"/>
<path d="M152.579 156.871L152.579 154.871L150.847 157.87L152.579 156.871ZM180.998 140.462L182.73 139.462L180.998 138.462L180.998 140.462ZM180.997 147.022L180.997 149.022C181.954 148.47 182.729 147.127 182.729 146.023L180.997 147.022ZM152.578 163.431L150.846 164.431L152.578 165.431L152.578 163.431ZM152.579 158.871L180.998 142.462L180.998 138.462L152.579 154.871L152.579 158.871ZM179.266 141.461L179.265 148.022L182.729 146.023L182.73 139.462L179.266 141.461ZM180.997 145.022L152.578 161.431L152.578 165.431L180.997 149.022L180.997 145.022ZM154.31 162.432L154.311 155.871L150.847 157.87L150.846 164.431L154.31 162.432Z" fill="black" mask="url(#path-32-outside-11_318_17675)"/>
<mask id="path-34-outside-12_318_17675" maskUnits="userSpaceOnUse" x="120.696" y="121.966" width="64.0871" height="36.998" fill="black">
<rect fill="white" x="120.696" y="121.966" width="64.0871" height="36.998"/>
<path d="M124.16 140.465L152.58 124.058L181.001 140.465L152.58 156.872L124.16 140.465Z"/>
</mask>
<path d="M124.16 140.465L152.58 124.058L181.001 140.465L152.58 156.872L124.16 140.465Z" fill="white"/>
<path d="M124.16 140.465L122.428 139.465V141.465L124.16 140.465ZM152.58 124.058L154.313 123.058C153.356 122.505 151.805 122.505 150.848 123.058L152.58 124.058ZM181.001 140.465L182.733 141.465V139.465L181.001 140.465ZM152.58 156.872L150.848 157.872H154.313L152.58 156.872ZM125.892 141.465L154.313 125.058L150.848 123.058L122.428 139.465L125.892 141.465ZM150.848 125.058L179.269 141.465L182.733 139.465L154.313 123.058L150.848 125.058ZM179.269 139.465L150.848 155.872L154.313 157.872L182.733 141.465L179.269 139.465ZM154.313 155.872L125.892 139.465L122.428 141.465L150.848 157.872L154.313 155.872Z" fill="black" mask="url(#path-34-outside-12_318_17675)"/>
<path d="M150.413 138.894L158.683 130.624L162.228 134.168L153.957 142.439L150.413 138.894Z" fill="white"/>
<path d="M157.502 131.805L155.729 122.944L138.598 118.809L142.733 135.94L151.594 137.713L157.502 131.805Z" fill="white"/>
<path d="M138.598 118.809L147.561 127.771Z" fill="white"/>
<path d="M149.231 131.805C150.536 131.805 151.594 130.747 151.594 129.442C151.594 128.137 150.536 127.079 149.231 127.079C147.926 127.079 146.868 128.137 146.868 129.442C146.868 130.747 147.926 131.805 149.231 131.805Z" fill="white"/>
<path d="M138.598 118.809L155.729 122.944L157.502 131.805L151.594 137.713L142.733 135.94L138.598 118.809ZM138.598 118.809L147.561 127.771M150.413 138.894L158.683 130.624L162.228 134.168L153.957 142.439L150.413 138.894ZM151.594 129.442C151.594 130.747 150.536 131.805 149.231 131.805C147.926 131.805 146.868 130.747 146.868 129.442C146.868 128.137 147.926 127.079 149.231 127.079C150.536 127.079 151.594 128.137 151.594 129.442Z" stroke="black" stroke-width="2" stroke-linecap="round" stroke-linejoin="round"/>
<mask id="path-38-outside-13_318_17675" maskUnits="userSpaceOnUse" x="0.267917" y="137.465" width="32.0427" height="29.501" fill="black">
<rect fill="white" x="0.267917" y="137.465" width="32.0427" height="29.501"/>
<path d="M2 140.465L30.4193 156.874L30.4203 163.435L2.00104 147.026L2 140.465Z"/>
</mask>
<path d="M2 140.465L30.4193 156.874L30.4203 163.435L2.00104 147.026L2 140.465Z" fill="#5F75EE"/>
<path d="M2 140.465L1.99994 138.465L0.267981 139.465L2 140.465ZM30.4193 156.874L32.1513 157.874L30.4192 154.874L30.4193 156.874ZM30.4203 163.435L30.4204 165.435L32.1524 164.434L30.4203 163.435ZM2.00104 147.026L0.269026 146.026C0.269202 147.13 1.04464 148.473 2.00111 149.026L2.00104 147.026ZM2.00006 142.465L30.4194 158.874L30.4192 154.874L1.99994 138.465L2.00006 142.465ZM28.6873 155.874L28.6883 162.435L32.1524 164.434L32.1513 157.874L28.6873 155.874ZM30.4203 161.435L2.00098 145.026L2.00111 149.026L30.4204 165.435L30.4203 161.435ZM3.73306 148.025L3.73202 141.465L0.267981 139.465L0.269026 146.026L3.73306 148.025Z" fill="black" mask="url(#path-38-outside-13_318_17675)"/>
<mask id="path-40-outside-14_318_17675" maskUnits="userSpaceOnUse" x="28.6857" y="137.37" width="32.0427" height="29.501" fill="black">
<rect fill="white" x="28.6857" y="137.37" width="32.0427" height="29.501"/>
<path d="M30.4188 156.871L58.8381 140.462L58.8371 147.022L30.4178 163.431L30.4188 156.871Z"/>
</mask>
<path d="M30.4188 156.871L58.8381 140.462L58.8371 147.022L30.4178 163.431L30.4188 156.871Z" fill="black"/>
<path d="M30.4188 156.871L30.4189 154.871L28.6868 157.87L30.4188 156.871ZM58.8381 140.462L60.5701 139.462L58.8382 138.462L58.8381 140.462ZM58.8371 147.022L58.837 149.022C59.7935 148.47 60.5689 147.127 60.5691 146.023L58.8371 147.022ZM30.4178 163.431L28.6857 164.431L30.4177 165.431L30.4178 163.431ZM30.4187 158.871L58.838 142.462L58.8382 138.462L30.4189 154.871L30.4187 158.871ZM57.1061 141.461L57.105 148.022L60.5691 146.023L60.5701 139.462L57.1061 141.461ZM58.8371 145.022L30.4178 161.431L30.4177 165.431L58.837 149.022L58.8371 145.022ZM32.1498 162.432L32.1508 155.871L28.6868 157.87L28.6857 164.431L32.1498 162.432Z" fill="black" mask="url(#path-40-outside-14_318_17675)"/>
<mask id="path-42-outside-15_318_17675" maskUnits="userSpaceOnUse" x="-1.46417" y="121.966" width="64.0871" height="36.998" fill="black">
<rect fill="white" x="-1.46417" y="121.966" width="64.0871" height="36.998"/>
<path d="M2 140.465L30.4203 124.058L58.8407 140.465L30.4203 156.872L2 140.465Z"/>
</mask>
<path d="M2 140.465L30.4203 124.058L58.8407 140.465L30.4203 156.872L2 140.465Z" fill="white"/>
<path d="M2 140.465L0.267917 139.465V141.465L2 140.465ZM30.4203 124.058L32.1524 123.058C31.1958 122.505 29.6449 122.505 28.6883 123.058L30.4203 124.058ZM58.8407 140.465L60.5728 141.465V139.465L58.8407 140.465ZM30.4203 156.872L28.6883 157.872H32.1524L30.4203 156.872ZM3.73208 141.465L32.1524 125.058L28.6883 123.058L0.267917 139.465L3.73208 141.465ZM28.6883 125.058L57.1086 141.465L60.5728 139.465L32.1524 123.058L28.6883 125.058ZM57.1086 139.465L28.6883 155.872L32.1524 157.872L60.5728 141.465L57.1086 139.465ZM32.1524 155.872L3.73208 139.465L0.267917 141.465L28.6883 157.872L32.1524 155.872Z" fill="black" mask="url(#path-42-outside-15_318_17675)"/>
<path d="M40.1419 117.544L18.8456 105.248C17.3754 104.399 16.1836 105.091 16.1837 106.794L16.1842 122.211C16.1842 123.914 17.3761 125.983 18.8463 126.832L40.1426 139.128C41.6128 139.977 42.8046 139.285 42.8045 137.582L42.804 122.165C42.804 120.462 41.6121 118.393 40.1419 117.544Z" fill="white"/>
<path d="M24.1706 136.073L34.8187 142.221M29.4945 132.98L29.4947 139.147M18.8456 105.248L40.1419 117.544C41.6121 118.393 42.804 120.462 42.804 122.165L42.8045 137.582C42.8046 139.285 41.6128 139.977 40.1426 139.128L18.8463 126.832C17.3761 125.983 16.1842 123.914 16.1842 122.211L16.1837 106.794C16.1836 105.091 17.3754 104.399 18.8456 105.248Z" stroke="black" stroke-width="2" stroke-linecap="round" stroke-linejoin="round"/>
<path d="M24.6645 116.598L25.171 117.741L22.1782 118.405L25.2018 122.579L24.6647 123.155L20.582 117.519L24.6645 116.598Z" fill="black"/>
<path d="M27.7746 127.184L26.731 126.581L30.721 116.657L31.7647 117.259L27.7746 127.184Z" fill="black"/>
<path d="M33.8401 128.453L33.3336 127.31L36.311 126.636L33.3027 122.471L33.8399 121.895L37.9225 127.531L33.8401 128.453Z" fill="black"/>
<mask id="path-47-outside-16_318_17675" maskUnits="userSpaceOnUse" x="61.3812" y="173.644" width="32.0427" height="29.501" fill="black">
<rect fill="white" x="61.3812" y="173.644" width="32.0427" height="29.501"/>
<path d="M63.1133 176.645L91.5326 193.054L91.5336 199.614L63.1143 183.205L63.1133 176.645Z"/>
</mask>
<path d="M63.1133 176.645L91.5326 193.054L91.5336 199.614L63.1143 183.205L63.1133 176.645Z" fill="#5F75EE"/>
<path d="M63.1133 176.645L63.1132 174.645L61.3813 175.645L63.1133 176.645ZM91.5326 193.054L93.2646 194.053L91.5325 191.054L91.5326 193.054ZM91.5336 199.614L91.5337 201.614L93.2656 200.614L91.5336 199.614ZM63.1143 183.205L61.3823 182.206C61.3825 183.31 62.1579 184.653 63.1144 185.205L63.1143 183.205ZM63.1133 178.645L91.5326 195.054L91.5325 191.054L63.1132 174.645L63.1133 178.645ZM89.8006 192.054L89.8016 198.615L93.2656 200.614L93.2646 194.053L89.8006 192.054ZM91.5336 197.614L63.1143 181.205L63.1144 185.205L91.5337 201.614L91.5336 197.614ZM64.8463 184.205L64.8453 177.644L61.3813 175.645L61.3823 182.206L64.8463 184.205Z" fill="black" mask="url(#path-47-outside-16_318_17675)"/>
<mask id="path-49-outside-17_318_17675" maskUnits="userSpaceOnUse" x="89.7989" y="173.55" width="32.0427" height="29.501" fill="black">
<rect fill="white" x="89.7989" y="173.55" width="32.0427" height="29.501"/>
<path d="M91.5321 193.05L119.951 176.641L119.95 183.202L91.531 199.611L91.5321 193.05Z"/>
</mask>
<path d="M91.5321 193.05L119.951 176.641L119.95 183.202L91.531 199.611L91.5321 193.05Z" fill="black"/>
<path d="M91.5321 193.05L91.5321 191.05L89.8001 194.05L91.5321 193.05ZM119.951 176.641L121.683 175.641L119.951 174.641L119.951 176.641ZM119.95 183.202L119.95 185.202C120.907 184.65 121.682 183.307 121.682 182.202L119.95 183.202ZM91.531 199.611L89.799 200.611L91.531 201.611L91.531 199.611ZM91.532 195.05L119.951 178.641L119.951 174.641L91.5321 191.05L91.532 195.05ZM118.219 177.641L118.218 184.202L121.682 182.202L121.683 175.641L118.219 177.641ZM119.95 181.202L91.5311 197.611L91.531 201.611L119.95 185.202L119.95 181.202ZM93.2631 198.611L93.2641 192.051L89.8001 194.05L89.799 200.611L93.2631 198.611Z" fill="black" mask="url(#path-49-outside-17_318_17675)"/>
<mask id="path-51-outside-18_318_17675" maskUnits="userSpaceOnUse" x="59.6491" y="158.146" width="64.0871" height="36.998" fill="black">
<rect fill="white" x="59.6491" y="158.146" width="64.0871" height="36.998"/>
<path d="M63.1133 176.645L91.5336 160.237L119.954 176.645L91.5336 193.052L63.1133 176.645Z"/>
</mask>
<path d="M63.1133 176.645L91.5336 160.237L119.954 176.645L91.5336 193.052L63.1133 176.645Z" fill="white"/>
<path d="M63.1133 176.645L61.3812 175.645V177.644L63.1133 176.645ZM91.5336 160.237L93.2657 159.237C92.3091 158.685 90.7581 158.685 89.8015 159.237L91.5336 160.237ZM119.954 176.645L121.686 177.644V175.645L119.954 176.645ZM91.5336 193.052L89.8015 194.052H93.2657L91.5336 193.052ZM64.8454 177.644L93.2657 161.237L89.8015 159.237L61.3812 175.645L64.8454 177.644ZM89.8015 161.237L118.222 177.644L121.686 175.645L93.2657 159.237L89.8015 161.237ZM118.222 175.645L89.8015 192.052L93.2657 194.052L121.686 177.644L118.222 175.645ZM93.2657 192.052L64.8454 175.645L61.3812 177.644L89.8015 194.052L93.2657 192.052Z" fill="black" mask="url(#path-51-outside-18_318_17675)"/>
<path fill-rule="evenodd" clip-rule="evenodd" d="M101.123 167.013C101.123 165.579 100.127 163.842 98.8977 163.132L94.4465 160.562L85.5441 155.422L81.093 152.852C79.8638 152.142 78.8674 152.729 78.8674 154.163L78.8676 158.641L78.8678 167.142C78.8679 168.576 79.8644 170.313 81.0935 171.023L98.8983 181.304C100.127 182.013 101.124 181.426 101.124 179.993L101.124 171.491L101.123 167.013Z" fill="white"/>
<path d="M85.5441 155.422L81.093 152.852C79.8638 152.142 78.8674 152.729 78.8674 154.163L78.8676 158.641M85.5441 155.422L85.5441 152.826C85.544 152.138 85.7785 151.613 86.1959 151.367C86.6132 151.121 87.1793 151.174 87.7696 151.515L92.2208 154.085C92.811 154.426 93.3771 155.026 93.7945 155.754C94.2119 156.482 94.4464 157.278 94.4465 157.966L94.4465 160.562M85.5441 155.422L94.4465 160.562M94.4465 160.562L98.8977 163.132C100.127 163.842 101.123 165.579 101.123 167.013L101.124 171.491M78.8676 158.641L78.8678 167.142C78.8679 168.576 79.8644 170.313 81.0935 171.023L98.8983 181.304C100.127 182.013 101.124 181.426 101.124 179.993L101.124 171.491M78.8676 158.641C82.6813 162.244 85.0246 164.458 88.4782 167.721M101.124 171.491L91.5131 169.473" stroke="black" stroke-width="2" stroke-linecap="round" stroke-linejoin="round"/>
<rect width="3.50481" height="5.25721" transform="matrix(0.86601 0.500028 3.18485e-05 1 88.4766 165.359)" fill="white" stroke="black" stroke-width="2" stroke-linecap="round" stroke-linejoin="round"/>
</svg>
