<svg width="130" height="130" viewBox="0 0 130 130" fill="none" xmlns="http://www.w3.org/2000/svg">
<circle cx="64.8802" cy="64.8785" r="46.4943" transform="rotate(30 64.8802 64.8785)" fill="#BAC4FA" stroke="black" stroke-width="2"/>
<path d="M95.2219 82.3983C88.7634 93.5848 79.4938 101.693 69.7677 105.783C60.0425 109.874 49.9208 109.931 41.6322 105.145C33.3436 100.36 28.3323 91.5657 27.0119 81.0983C25.6914 70.63 28.0783 58.5482 34.5368 47.3618C40.9953 36.1753 50.265 28.0673 59.991 23.9768C69.7163 19.8866 79.8379 19.8293 88.1265 24.6148C96.4152 29.4002 101.426 38.1944 102.747 48.6618C104.067 59.1301 101.68 71.2119 95.2219 82.3983Z" stroke="black" stroke-width="2"/>
<path d="M75.6981 71.1243C69.1741 82.4242 61.949 91.8492 55.5654 97.9562C52.3686 101.014 49.4251 103.2 46.9232 104.387C44.3874 105.591 42.54 105.668 41.3136 104.96C40.0873 104.251 39.2297 102.613 39.0044 99.8154C38.782 97.0548 39.2027 93.4131 40.2528 89.1155C42.3498 80.5336 46.8996 69.564 53.4235 58.2641C59.9475 46.9643 67.1726 37.5393 73.5563 31.4323C76.7531 28.374 79.6965 26.1889 82.1985 25.0011C84.7343 23.7972 86.5816 23.7209 87.808 24.4289C89.0344 25.137 89.8919 26.775 90.1173 29.573C90.3396 32.3337 89.9189 35.9753 88.8688 40.273C86.7718 48.8549 82.2221 59.8245 75.6981 71.1243Z" stroke="black" stroke-width="2"/>
<path d="M106.136 86.6256C104.065 90.2134 83.8917 82.4443 61.7061 69.6355C39.5206 56.8267 23.3544 43.6151 25.4258 40.0273" stroke="black" stroke-width="2"/>
</svg>
