<svg width="200" height="200" viewBox="0 0 200 200" fill="none" xmlns="http://www.w3.org/2000/svg">
<path d="M190.695 10.9998L190.695 172.789L130.706 187.331L73.2621 172.789L10.0009 188.059L10.0009 26.9969L73.2621 10.9998L130.706 26.2698L190.695 10.9998Z" fill="white"/>
<path d="M130.706 26.2698L190.695 10.9998L190.695 172.789L130.706 187.331M130.706 26.2698L73.2621 10.9998M130.706 26.2698L130.706 187.331M73.2621 10.9998L10.0009 26.9969L10.0009 188.059L73.2621 172.789M73.2621 10.9998L73.2621 62.9904M73.2621 172.789L130.706 187.331M73.2621 172.789L73.2621 102.62M73.2621 79.7146L73.2621 70.9889" stroke="black" stroke-width="2" stroke-linecap="round" stroke-linejoin="round"/>
<path d="M185.606 124.436L185.606 167.356L130.707 180.785L73.2624 166.969L15.4547 180.785L15.4547 31.2787L73.2624 17.1785L130.707 31.7213L185.606 18.6328L185.606 124.436Z" fill="white"/>
<path d="M130.707 31.7213L185.606 18.6328L185.606 167.356L130.707 180.785M130.707 31.7213L73.2624 17.1785M130.707 31.7213L130.707 180.785M73.2624 17.1785L15.4547 31.2787L15.4547 180.785L73.2624 166.969M73.2624 17.1785L73.2624 65.5334M73.2624 166.969L130.707 180.785M73.2624 166.969L73.6289 102.563M190.332 123.341L173.971 127.132M96.8945 128.795L130.707 137.157L139.432 135.135M109.619 70.9869L130.707 76.804L171.426 68.0784M100.167 68.0783L87.8052 64.4426M72.8988 60.0798L19.454 70.9869M72.8988 124.795L21.6354 137.157" stroke="black" stroke-width="2" stroke-linecap="round" stroke-linejoin="round"/>
<path d="M129.707 126.98L129.707 127.98L131.707 127.98L131.707 126.98L129.707 126.98ZM131.707 106.257L131.707 105.257L129.707 105.257L129.707 106.257L131.707 106.257ZM131.707 126.98L131.707 106.257L129.707 106.257L129.707 126.98L131.707 126.98Z" fill="white"/>
<path d="M41.39 57.9215C40.9046 59.3779 39.0803 59.8924 38.7277 58.6724L37.4182 54.1416C37.2605 53.596 36.7432 53.3424 36.1368 53.5134L31.1014 54.9335C29.7455 55.3159 29.2711 53.6744 30.409 52.538L34.6351 48.3176C35.144 47.8094 35.3818 47.0959 35.2241 46.5503L33.9147 42.0195C33.562 40.7995 35.0932 39.2704 36.1491 39.7881L40.0704 41.7106C40.5427 41.9421 41.207 41.7548 41.7159 41.2465L45.942 37.0262C47.0799 35.8898 48.5007 36.5863 48.0153 38.0427L46.2127 43.4512C45.9957 44.1025 46.1684 44.7002 46.6406 44.9317L50.562 46.8542C51.6179 47.3719 50.9648 49.3315 49.6089 49.7139L44.5735 51.134C43.9671 51.305 43.4096 51.8618 43.1926 52.5131L41.39 57.9215Z" fill="black"/>
<path d="M130.258 127.832C124.701 126.244 120.196 120.014 120.196 113.917C120.196 107.819 124.701 104.163 130.258 105.751L130.258 127.832Z" fill="#FEDB9E"/>
<path d="M131.434 127.707C137.056 126.557 141.614 120.681 141.614 114.584C141.614 108.486 137.056 104.476 131.434 105.626L131.434 127.707Z" fill="black"/>
</svg>
