<svg width="147" height="28" viewBox="0 0 147 28" fill="none" xmlns="http://www.w3.org/2000/svg">
<path d="M0.739938 21V1.4H4.32394V9.548H13.1159V1.4H16.6999V21H13.1159V12.46H4.32394V21H0.739938ZM21.6015 27.16L24.8215 20.076H23.9815L18.5775 7.112H22.4695L26.3615 16.884L30.4215 7.112H34.2295L25.4095 27.16H21.6015ZM36.0125 27.16V7.112H39.2045L39.5965 9.1C40.0445 8.484 40.6325 7.94267 41.3605 7.476C42.1072 7.00933 43.0685 6.776 44.2445 6.776C45.5512 6.776 46.7178 7.09333 47.7445 7.728C48.7712 8.36267 49.5832 9.23067 50.1805 10.332C50.7778 11.4333 51.0765 12.684 51.0765 14.084C51.0765 15.484 50.7778 16.7347 50.1805 17.836C49.5832 18.9187 48.7712 19.7773 47.7445 20.412C46.7178 21.028 45.5512 21.336 44.2445 21.336C43.1992 21.336 42.2845 21.14 41.5005 20.748C40.7165 20.356 40.0818 19.8053 39.5965 19.096V27.16H36.0125ZM43.4885 18.2C44.6272 18.2 45.5698 17.8173 46.3165 17.052C47.0632 16.2867 47.4365 15.2973 47.4365 14.084C47.4365 12.8707 47.0632 11.872 46.3165 11.088C45.5698 10.304 44.6272 9.912 43.4885 9.912C42.3312 9.912 41.3792 10.304 40.6325 11.088C39.9045 11.8533 39.5405 12.8427 39.5405 14.056C39.5405 15.2693 39.9045 16.268 40.6325 17.052C41.3792 17.8173 42.3312 18.2 43.4885 18.2ZM60.4661 21.336C59.0661 21.336 57.8248 21.0373 56.7421 20.44C55.6595 19.8427 54.8101 19.0027 54.1941 17.92C53.5781 16.8373 53.2701 15.5867 53.2701 14.168C53.2701 12.7307 53.5688 11.452 54.1661 10.332C54.7821 9.212 55.6221 8.344 56.6861 7.728C57.7688 7.09333 59.0381 6.776 60.4941 6.776C61.8568 6.776 63.0608 7.07467 64.1061 7.672C65.1515 8.26933 65.9635 9.09067 66.5421 10.136C67.1395 11.1627 67.4381 12.3107 67.4381 13.58C67.4381 13.7853 67.4288 14 67.4101 14.224C67.4101 14.448 67.4008 14.6813 67.3821 14.924H56.8261C56.9008 16.0067 57.2741 16.856 57.9461 17.472C58.6368 18.088 59.4675 18.396 60.4381 18.396C61.1661 18.396 61.7728 18.2373 62.2581 17.92C62.7621 17.584 63.1355 17.1547 63.3781 16.632H67.0181C66.7568 17.5093 66.3181 18.312 65.7021 19.04C65.1048 19.7493 64.3581 20.3093 63.4621 20.72C62.5848 21.1307 61.5861 21.336 60.4661 21.336ZM60.4941 9.688C59.6168 9.688 58.8421 9.94 58.1701 10.444C57.4981 10.9293 57.0688 11.676 56.8821 12.684H63.7981C63.7421 11.7693 63.4061 11.0413 62.7901 10.5C62.1741 9.95867 61.4088 9.688 60.4941 9.688ZM69.8925 21V7.112H73.0845L73.4205 9.716C73.9245 8.82 74.6058 8.11067 75.4645 7.588C76.3418 7.04667 77.3685 6.776 78.5445 6.776V10.556H77.5365C76.7525 10.556 76.0525 10.6773 75.4365 10.92C74.8205 11.1627 74.3352 11.5827 73.9805 12.18C73.6445 12.7773 73.4765 13.608 73.4765 14.672V21H69.8925ZM86.1741 21.336C84.9421 21.336 83.8594 21.14 82.9261 20.748C81.9927 20.3373 81.2461 19.7773 80.6861 19.068C80.1261 18.3587 79.7901 17.5373 79.6781 16.604H83.2901C83.4021 17.1453 83.7007 17.612 84.1861 18.004C84.6901 18.3773 85.3341 18.564 86.1181 18.564C86.9021 18.564 87.4714 18.4053 87.8261 18.088C88.1994 17.7707 88.3861 17.4067 88.3861 16.996C88.3861 16.3987 88.1247 15.9973 87.6021 15.792C87.0794 15.568 86.3514 15.3533 85.4181 15.148C84.8207 15.0173 84.2141 14.8587 83.5981 14.672C82.9821 14.4853 82.4127 14.252 81.8901 13.972C81.3861 13.6733 80.9754 13.3 80.6581 12.852C80.3407 12.3853 80.1821 11.816 80.1821 11.144C80.1821 9.912 80.6674 8.876 81.6381 8.036C82.6274 7.196 84.0087 6.776 85.7821 6.776C87.4247 6.776 88.7314 7.15867 89.7021 7.924C90.6914 8.68933 91.2794 9.744 91.4661 11.088H88.0781C87.8727 10.0613 87.0981 9.548 85.7541 9.548C85.0821 9.548 84.5594 9.67867 84.1861 9.94C83.8314 10.2013 83.6541 10.528 83.6541 10.92C83.6541 11.3307 83.9247 11.6573 84.4661 11.9C85.0074 12.1427 85.7261 12.3667 86.6221 12.572C87.5927 12.796 88.4794 13.048 89.2821 13.328C90.1034 13.5893 90.7567 13.9907 91.2421 14.532C91.7274 15.0547 91.9701 15.8107 91.9701 16.8C91.9887 17.6587 91.7647 18.4333 91.2981 19.124C90.8314 19.8147 90.1594 20.356 89.2821 20.748C88.4047 21.14 87.3687 21.336 86.1741 21.336ZM101.389 21.336C99.9703 21.336 98.7197 21.028 97.637 20.412C96.5543 19.796 95.6957 18.9373 95.061 17.836C94.445 16.7347 94.137 15.4747 94.137 14.056C94.137 12.6373 94.445 11.3773 95.061 10.276C95.6957 9.17467 96.5543 8.316 97.637 7.7C98.7197 7.084 99.9703 6.776 101.389 6.776C103.162 6.776 104.656 7.24267 105.869 8.176C107.082 9.09067 107.857 10.36 108.193 11.984H104.413C104.226 11.312 103.853 10.7893 103.293 10.416C102.752 10.024 102.108 9.828 101.361 9.828C100.372 9.828 99.5317 10.2013 98.841 10.948C98.1503 11.6947 97.805 12.7307 97.805 14.056C97.805 15.3813 98.1503 16.4173 98.841 17.164C99.5317 17.9107 100.372 18.284 101.361 18.284C102.108 18.284 102.752 18.0973 103.293 17.724C103.853 17.3507 104.226 16.8187 104.413 16.128H108.193C107.857 17.696 107.082 18.956 105.869 19.908C104.656 20.86 103.162 21.336 101.389 21.336ZM115.602 21.336C114.407 21.336 113.427 21.1493 112.662 20.776C111.897 20.384 111.327 19.8707 110.954 19.236C110.581 18.6013 110.394 17.9013 110.394 17.136C110.394 15.848 110.898 14.8027 111.906 14C112.914 13.1973 114.426 12.796 116.442 12.796H119.97V12.46C119.97 11.508 119.699 10.808 119.158 10.36C118.617 9.912 117.945 9.688 117.142 9.688C116.414 9.688 115.779 9.86533 115.238 10.22C114.697 10.556 114.361 11.06 114.23 11.732H110.73C110.823 10.724 111.159 9.84667 111.738 9.1C112.335 8.35333 113.101 7.784 114.034 7.392C114.967 6.98133 116.013 6.776 117.17 6.776C119.149 6.776 120.707 7.27067 121.846 8.26C122.985 9.24933 123.554 10.6493 123.554 12.46V21H120.502L120.166 18.76C119.755 19.5067 119.177 20.1227 118.43 20.608C117.702 21.0933 116.759 21.336 115.602 21.336ZM116.414 18.536C117.441 18.536 118.234 18.2 118.794 17.528C119.373 16.856 119.737 16.0253 119.886 15.036H116.834C115.882 15.036 115.201 15.2133 114.79 15.568C114.379 15.904 114.174 16.324 114.174 16.828C114.174 17.3693 114.379 17.7893 114.79 18.088C115.201 18.3867 115.742 18.536 116.414 18.536ZM126.414 21V0.839999H129.998V21H126.414ZM139.848 21.336C138.448 21.336 137.207 21.0373 136.124 20.44C135.042 19.8427 134.192 19.0027 133.576 17.92C132.96 16.8373 132.652 15.5867 132.652 14.168C132.652 12.7307 132.951 11.452 133.548 10.332C134.164 9.212 135.004 8.344 136.068 7.728C137.151 7.09333 138.42 6.776 139.876 6.776C141.239 6.776 142.443 7.07467 143.488 7.672C144.534 8.26933 145.346 9.09067 145.924 10.136C146.522 11.1627 146.82 12.3107 146.82 13.58C146.82 13.7853 146.811 14 146.792 14.224C146.792 14.448 146.783 14.6813 146.764 14.924H136.208C136.283 16.0067 136.656 16.856 137.328 17.472C138.019 18.088 138.85 18.396 139.82 18.396C140.548 18.396 141.155 18.2373 141.64 17.92C142.144 17.584 142.518 17.1547 142.76 16.632H146.4C146.139 17.5093 145.7 18.312 145.084 19.04C144.487 19.7493 143.74 20.3093 142.844 20.72C141.967 21.1307 140.968 21.336 139.848 21.336ZM139.876 9.688C138.999 9.688 138.224 9.94 137.552 10.444C136.88 10.9293 136.451 11.676 136.264 12.684H143.18C143.124 11.7693 142.788 11.0413 142.172 10.5C141.556 9.95867 140.791 9.688 139.876 9.688Z" fill="white"/>
</svg>
