<svg width="146" height="149" viewBox="0 0 146 149" fill="none" xmlns="http://www.w3.org/2000/svg">
<path d="M14.4879 33.5502C12.7218 41.6808 14.4938 51.2874 19.064 61.0936C25.4912 74.8847 37.5438 89.3088 53.6697 101.149C69.7949 112.989 87.0197 120.063 101.867 121.886C112.431 123.184 121.92 121.83 128.905 117.514L124.268 124.112C118.832 131.848 107.63 134.57 93.4723 132.27C79.3775 129.98 62.6796 122.741 46.7609 111.053C30.8427 99.365 18.797 85.4984 12.1694 72.5682C5.51114 59.5783 4.45194 47.832 9.89717 40.0831L14.4879 33.5502ZM134.389 109.71C128.365 118.282 116.609 121.678 102.123 119.899C87.676 118.124 70.7651 111.212 54.8573 99.5313C38.9501 87.8514 27.1375 73.674 20.875 60.2364C14.5944 46.76 13.9865 34.2637 20.0177 25.681C26.0412 17.1092 37.7979 13.7129 52.2832 15.4923C66.7304 17.267 83.6414 24.1796 99.5492 35.86C115.456 47.5399 127.269 61.7173 133.531 75.1549C139.812 88.6314 140.42 101.128 134.389 109.71Z" fill="#BAC4FA" stroke="black" stroke-width="2"/>
<path d="M99.5506 35.86C115.458 47.5399 127.27 61.7173 133.533 75.1549C139.813 88.6313 140.421 101.128 134.39 109.71C128.367 118.282 116.61 121.678 102.125 119.899C87.6774 118.124 70.7664 111.212 54.8586 99.5313C38.9514 87.8514 27.1388 73.674 20.8764 60.2364C14.5958 46.76 13.9879 34.2636 20.019 25.681C26.0426 17.1091 37.7992 13.7128 52.2846 15.4922C66.7318 17.2669 83.6428 24.1796 99.5506 35.86Z" fill="white" stroke="black" stroke-width="2"/>
<path d="M95.0312 41.2787C108.615 51.2526 118.887 63.0837 124.534 74.1087C130.212 85.1932 131.085 95.1649 126.477 101.721C121.88 108.264 112.382 110.6 100.304 108.641C88.2886 106.692 74.0441 100.522 60.4598 90.548C46.8761 80.5742 36.604 68.743 30.9567 57.718C25.2789 46.6335 24.4065 36.6619 29.0135 30.1058C33.6114 23.5627 43.1088 21.2264 55.187 23.1855C67.2024 25.1344 81.4469 31.3044 95.0312 41.2787Z" fill="black" stroke="black" stroke-width="2"/>
<path d="M64.0343 80.5274C57.2076 80.5359 49.1483 77.1393 40.4174 70.7286C38.5296 69.3425 36.7355 67.9023 35.0459 66.422C40.8845 74.9223 49.3956 83.6661 59.8674 91.355C85.6754 110.305 113.62 115.672 122.284 103.343C122.68 102.779 123.03 102.187 123.333 101.569C127.872 92.2638 119.819 79.6777 108.076 71.0557C101.718 66.3866 96.6204 64.3532 92.1839 64.3587C90.0217 64.3614 87.9353 64.8501 85.9575 65.8794L97.9831 79.1184L95.1343 83.1724L82.0554 68.7738C81.1526 69.6675 80.2822 70.7044 79.4483 71.8912C78.9237 72.6376 78.3779 73.3405 77.8098 73.998L71.2352 66.76C71.3778 66.5684 71.5195 66.3726 71.66 66.1726C72.8718 64.4482 74.1972 62.956 75.6481 61.7199L61.8499 46.5295L64.6987 42.4756L79.7726 59.0705C81.9664 58.0688 84.3915 57.5397 87.074 57.5364C93.9006 57.5279 101.96 60.9245 110.691 67.3352C112.579 68.7213 114.373 70.1614 116.062 71.6417C110.224 63.1414 101.713 54.3977 91.2409 46.7087C65.4329 27.7591 37.4882 22.3918 28.8246 34.7205C28.4278 35.2853 28.0782 35.8774 27.775 36.4949C23.2361 45.8001 31.2895 58.3862 43.0319 67.0081C49.3908 71.6771 54.4879 73.7105 58.9243 73.705C61.084 73.7023 63.1679 73.2148 65.1437 72.1881L53.1206 58.9519L55.9694 54.8979L89.2538 91.5408L86.405 95.5947L71.3282 78.9967C69.1364 79.9961 66.7138 80.524 64.0343 80.5274Z" fill="white"/>
<path d="M90.6429 47.5166C103.456 56.9248 113.275 67.8976 118.809 77.9942C124.386 88.1695 125.444 97.1054 121.464 102.769C117.494 108.418 108.901 110.246 97.6948 108.094C86.5753 105.958 73.2709 99.9536 60.457 90.545C47.6437 81.1368 37.8254 70.1639 32.2912 60.0674C26.7139 49.8921 25.6557 40.9562 29.6359 35.2922C33.6055 29.6432 42.1993 27.8151 53.4051 29.9674C64.5247 32.1031 77.8291 38.1079 90.6429 47.5166Z" stroke="black" stroke-width="2"/>
</svg>
